<svg xmlns="http://www.w3.org/2000/svg" width="21" height="20" viewBox="0 0 21 20"><path fill="#0f2740" d="M19.2 1.61a5.38 5.38 0 0 0-7.54 0L1.98 12.3a3.88 3.88 0 0 0-.13 5.55 4.03 4.03 0 0 0 5.63.13l.15-.14 9.68-10.7c1.05-1 1.09-2.65.07-3.7a2.69 2.69 0 0 0-3.85.02l-7.1 8.18c-.12.13-.11.32.01.45l.94.92c.07.07.16.1.25.1.1-.01.18-.05.24-.12l7.09-8.14a.67.67 0 0 1 .94.01c.25.26.25.67-.01.93L6.2 16.46a2 2 0 0 1-2.82-.01 1.95 1.95 0 0 1 .01-2.78l9.68-10.69a3.36 3.36 0 0 1 4.7-.17 3.23 3.23 0 0 1-.03 4.81l-7.33 8.4c-.11.13-.1.32.03.44l.93.94c.13.12.34.12.47 0l.01-.02 7.32-8.37a5.18 5.18 0 0 0 .03-7.4z"/></svg>