<svg xmlns="http://www.w3.org/2000/svg" width="21" height="16" viewBox="0 0 21 16"><path fill="#b3fcff" d="M2.42 4.78L4.71 6.3l2.92 1.94.48.33a20.87 20.87 0 0 0 1.18.75c.23.13.44.22.64.29.2.06.39.1.56.1h.02c.17 0 .36-.04.56-.1a10.5 10.5 0 0 0 1.82-1.04l.48-.33 5.22-3.46c.54-.36 1-.8 1.36-1.31a2.7 2.7 0 0 0 .55-1.61c0-.47-.18-.87-.53-1.2-.35-.34-.77-.5-1.26-.5H2.29C1.71.15 1.27.33.96.7.65 1.08.5 1.54.5 2.09c0 .45.2.94.61 1.46s.85.93 1.31 1.23zm16.96 1.14a220.1 220.1 0 0 0-6.59 4.37c-.26.17-.61.34-1.05.52-.44.17-.85.26-1.23.26h-.02c-.38 0-.79-.1-1.23-.26a6.22 6.22 0 0 1-1.05-.52c-.27-.16-.61-.4-1.04-.7-1-.7-2.85-1.92-5.54-3.67-.43-.27-.8-.58-1.13-.93v8.46c0 .47.17.87.52 1.2.35.34.77.5 1.27.5h16.42c.5 0 .92-.16 1.27-.5.35-.33.52-.73.52-1.2V5c-.32.34-.69.65-1.12.93z"/></svg>