<svg xmlns="http://www.w3.org/2000/svg" width="105" height="97" viewBox="0 0 105 97"><path fill="#0f2740" d="M8.75 14.44V27.2a4.55 4.55 0 0 0 2.59 3.91l3.16 1.37c1.24.53 3.25.95 4.6.95h66.8c1.35 0 3.37-.42 4.6-.95l3.17-1.37a4.55 4.55 0 0 0 2.58-3.9V14.43a4.56 4.56 0 0 0-2.58-3.91L90.5 9.17a13.63 13.63 0 0 0-4.6-.95H19.1c-1.34 0-3.36.42-4.6.95l-3.16 1.36a4.56 4.56 0 0 0-2.59 3.91zm3.32-2.21l3.17-1.37c1-.43 2.77-.8 3.86-.8h66.8c1.1 0 2.86.37 3.86.8l3.17 1.37a2.7 2.7 0 0 1 1.46 2.21V27.2a2.7 2.7 0 0 1-1.46 2.22l-3.17 1.37c-1 .43-2.77.79-3.86.79H19.1c-1.1 0-2.86-.36-3.86-.8l-3.17-1.36a2.7 2.7 0 0 1-1.46-2.22v-8.5h21.9a.93.93 0 1 0 0-1.84H10.6v-2.42c0-.84.68-1.88 1.46-2.21zm57.72 9.71h15.24a2.76 2.76 0 0 0 2.77-2.75v-3.65a2.76 2.76 0 0 0-2.77-2.75H69.8a2.76 2.76 0 0 0-2.77 2.75v3.65a2.76 2.76 0 0 0 2.77 2.75zm0-7.3h15.24c.5 0 .91.4.91.9v3.65c0 .5-.4.9-.9.9H69.78a.9.9 0 0 1-.9-.9v-3.65c0-.5.4-.9.9-.9zm20.7 22.2a13.6 13.6 0 0 0-4.59-.94H19.1c-1.35 0-3.36.41-4.6.94l-3.17 1.37a4.56 4.56 0 0 0-2.58 3.91v12.76a4.55 4.55 0 0 0 2.58 3.91l3.17 1.37c1.24.53 3.25.94 4.6.94h66.8c1.35 0 3.36-.41 4.6-.94l3.16-1.37a4.55 4.55 0 0 0 2.59-3.91V42.12a4.56 4.56 0 0 0-2.59-3.91zM74.65 53.13a.92.92 0 0 0-.93.92c0 .51.42.92.93.92H94.4c-.05.83-.71 1.8-1.46 2.13l-3.17 1.36c-1 .43-2.77.8-3.86.8H19.1c-1.1 0-2.86-.37-3.86-.8l-3.17-1.36a2.7 2.7 0 0 1-1.46-2.22v-1.64h18.62c.5 0 .92-.42.92-.93a.92.92 0 0 0-.92-.92H10.6v-5.32h12.28c.52 0 .93-.41.93-.92a.93.93 0 0 0-.93-.93H10.61v-2.1c0-.85.68-1.88 1.46-2.22l3.17-1.36c1-.43 2.77-.8 3.86-.8h66.8c1.1 0 2.86.37 3.86.8l3.17 1.36a2.7 2.7 0 0 1 1.46 2.22v11.01zm10.4-12.67H69.78a2.76 2.76 0 0 0-2.77 2.75v3.66a2.76 2.76 0 0 0 2.77 2.75h15.24a2.76 2.76 0 0 0 2.77-2.75v-3.66a2.76 2.76 0 0 0-2.77-2.75zm.9 6.41c0 .5-.4.9-.9.9H69.78a.9.9 0 0 1-.9-.9v-3.66c0-.5.4-.9.9-.9h15.24c.5 0 .91.4.91.9zm10.3 35.69V69.8a4.55 4.55 0 0 0-2.58-3.91l-3.16-1.37a13.65 13.65 0 0 0-4.6-.95H19.1c-1.35 0-3.37.42-4.6.95l-3.17 1.37a4.55 4.55 0 0 0-2.58 3.91v12.76a4.55 4.55 0 0 0 2.58 3.91l3.17 1.36c1.24.54 3.25.95 4.6.95h66.8c1.35 0 3.36-.41 4.6-.95l3.16-1.36a4.55 4.55 0 0 0 2.59-3.91zm-3.31 2.21l-3.17 1.37c-1 .43-2.77.79-3.86.79H19.1c-1.1 0-2.86-.36-3.86-.79l-3.17-1.36a2.72 2.72 0 0 1-1.46-2.22V71.7h6.83a.92.92 0 1 0 0-1.85H10.6v-.05c0-.85.68-1.88 1.46-2.22l3.17-1.37c1-.43 2.77-.79 3.86-.79h66.8c1.1 0 2.86.36 3.86.79l3.17 1.37a2.7 2.7 0 0 1 1.46 2.22v11.84h-4.25a.92.92 0 0 0-.92.92c0 .51.41.92.92.92h4.02a2.59 2.59 0 0 1-1.23 1.29zm-7.9-16.63H69.8a2.76 2.76 0 0 0-2.77 2.75v3.65a2.76 2.76 0 0 0 2.77 2.75h15.24a2.76 2.76 0 0 0 2.77-2.75v-3.65a2.76 2.76 0 0 0-2.77-2.75zm.91 6.4c0 .5-.4.91-.9.91H69.78c-.5 0-.9-.41-.9-.91v-3.65c0-.5.4-.9.9-.9h15.24c.5 0 .91.4.91.9zm-73.79 15.5l-4 .01a.93.93 0 0 1-.94-.93V7.88c0-.51.42-.93.93-.93h4.1c.51 0 .93-.41.93-.92V2.99A3 3 0 0 0 10.15 0H3.01A3 3 0 0 0 0 3v91a3 3 0 0 0 3.01 3h7.14a3 3 0 0 0 3.02-3v-3.04c0-.25-.12-.5-.31-.67a.97.97 0 0 0-.7-.25zM11.31 94c0 .64-.52 1.15-1.16 1.15H3.01c-.64 0-1.15-.51-1.15-1.15V3c0-.64.51-1.15 1.15-1.15h7.14c.64 0 1.16.51 1.16 1.15v2.1H8.14a2.78 2.78 0 0 0-2.78 2.78v81.24a2.78 2.78 0 0 0 2.78 2.77h3.17zm90.68-94h-7.14a3 3 0 0 0-3.02 3v3.04c0 .25.12.5.31.67.19.18.45.27.7.25h4.02c.51 0 .93.4.93.92v81.24c0 .51-.42.93-.93.93h-4.1a.92.92 0 0 0-.93.92V94a3 3 0 0 0 3.02 3h7.14a3 3 0 0 0 3.01-3V3a3 3 0 0 0-3.01-3zm1.15 94c0 .64-.52 1.15-1.15 1.15h-7.14c-.64 0-1.16-.51-1.16-1.15v-2.11h3.17a2.78 2.78 0 0 0 2.78-2.77V7.88a2.78 2.78 0 0 0-2.78-2.77h-3.17V3c0-.64.52-1.15 1.16-1.15h7.14c.64 0 1.15.51 1.15 1.15z"/></svg>