<svg xmlns="http://www.w3.org/2000/svg" width="98" height="97" viewBox="0 0 98 97"><path fill="#0f2740" d="M25.59 38.24H3.46A3.48 3.48 0 0 0 0 41.72v51.8A3.47 3.47 0 0 0 3.46 97H25.6c1.9 0 3.46-1.56 3.46-3.48v-51.8a3.47 3.47 0 0 0-3.46-3.48zm0 57.04H3.46c-.97 0-1.75-.79-1.75-1.76V74.28h14.82a.86.86 0 0 0 0-1.72H1.7V41.72c0-.97.78-1.77 1.75-1.77H25.6c.97 0 1.75.8 1.75 1.77v37.3h-4.92a.86.86 0 0 0 0 1.72h4.92v8.25H9.17a.85.85 0 1 0 0 1.71h18.17v2.82c0 .97-.78 1.76-1.75 1.76zm34.47-76.16H37.94a3.47 3.47 0 0 0-3.45 3.48v70.92A3.47 3.47 0 0 0 37.94 97h22.13c1.9 0 3.46-1.56 3.46-3.48V22.6a3.47 3.47 0 0 0-3.47-3.48zm0 76.16H37.94c-.96 0-1.75-.79-1.75-1.76v-9.55h10.74a.86.86 0 1 0 0-1.72H36.18V22.6c0-.97.79-1.76 1.76-1.76h22.13c.96 0 1.75.79 1.75 1.76V56.4H43.17a.85.85 0 0 0 0 1.71h18.65v9.73h-7.14a.86.86 0 0 0 0 1.72h7.14v23.95c0 .97-.79 1.76-1.76 1.76zM94.54 0H72.4a3.47 3.47 0 0 0-3.46 3.48v90.04A3.47 3.47 0 0 0 72.4 97h22.13c1.9 0 3.46-1.56 3.46-3.48V3.48A3.47 3.47 0 0 0 94.54 0zm0 95.28H72.4c-.97 0-1.76-.79-1.76-1.76V82.89H91.1a.85.85 0 1 0 0-1.71H70.65V37.39h15.76a.86.86 0 0 0 0-1.71H70.65V3.48c0-.97.8-1.76 1.76-1.76h22.13c.97 0 1.75.79 1.75 1.76v56.43h-6.94a.85.85 0 0 0 0 1.71h6.94v31.9c0 .97-.78 1.76-1.75 1.76zM21.87 65.05c.3-.22.43-.61.31-.96l-2.42-7.5 6.34-4.64a.85.85 0 0 0-.5-1.55h-7.84l-2.42-7.5a.86.86 0 0 0-1.63 0l-2.42 7.5H3.45a.86.86 0 0 0-.5 1.55l6.34 4.64-2.42 7.5c-.12.35.01.74.3.96.16.11.33.16.51.16s.35-.05.5-.16l6.35-4.64 6.34 4.64c.3.22.7.22 1 0zm-6.84-6.39a.85.85 0 0 0-.5-.17.85.85 0 0 0-.5.17L9.3 62.11l1.8-5.58a.85.85 0 0 0-.3-.96l-4.72-3.45h5.83c.37 0 .7-.24.81-.6l1.8-5.58 1.8 5.58c.12.36.45.6.82.6h5.83l-4.72 3.45c-.3.21-.42.6-.3.96l1.8 5.58zM49 41.56l6.34 4.63c.15.11.33.17.5.17.18 0 .36-.06.5-.17.3-.21.43-.6.32-.96l-2.43-7.5 6.35-4.63a.86.86 0 0 0-.5-1.55h-7.85l-2.42-7.5a.86.86 0 0 0-.81-.6c-.37 0-.7.25-.81.6l-2.42 7.5h-7.85c-.37 0-.7.24-.8.6-.12.34 0 .73.3.95l6.35 4.64-2.43 7.49c-.11.36.01.75.31.96.3.22.7.22 1 0zm-8.45-8.3h5.83c.37 0 .7-.24.82-.59L49 27.1l1.8 5.58c.12.35.45.6.82.6h5.83l-4.72 3.44c-.3.22-.42.61-.31.96l1.8 5.58-4.72-3.45a.85.85 0 0 0-1 0l-4.72 3.45 1.8-5.58a.86.86 0 0 0-.3-.96zm49.77-6.2c.18 0 .35-.05.5-.16.3-.22.43-.6.31-.96l-2.42-7.5 6.34-4.64a.86.86 0 0 0-.5-1.55h-7.84l-2.42-7.5a.85.85 0 0 0-1.63 0l-2.42 7.5H72.4c-.37 0-.7.24-.81.6-.12.35 0 .74.3.95l6.35 4.64-2.42 7.5c-.12.35 0 .74.3.96.3.22.71.22 1.01 0l6.34-4.64 6.35 4.64c.15.1.32.16.5.16zm-6.34-6.55a.85.85 0 0 0-1 0l-4.73 3.45 1.8-5.59a.86.86 0 0 0-.3-.95l-4.73-3.45h5.84c.37 0 .7-.24.81-.6l1.8-5.58 1.8 5.58c.12.36.45.6.82.6h5.83l-4.72 3.45c-.3.21-.42.6-.3.95l1.8 5.59z"/></svg>