<?xml version="1.0" encoding="utf-8"?>
<!-- Generator: Adobe Illustrator 21.0.0, SVG Export Plug-In . SVG Version: 6.00 Build 0)  -->
<svg version="1.1" id="Слой_1" xmlns="http://www.w3.org/2000/svg" xmlns:xlink="http://www.w3.org/1999/xlink" x="0px" y="0px"
	 viewBox="0 0 83 98" style="enable-background:new 0 0 83 98;" xml:space="preserve">
<style type="text/css">
	.st0{fill:#0F2740;stroke:#FFFFFF;stroke-miterlimit:10;}
	.st1{fill:none;stroke:#FFFFFF;stroke-width:0.5;stroke-linecap:round;stroke-linejoin:round;stroke-miterlimit:50;}
</style>
<path class="st0" d="M33.2,4.1h17c0.9,0,1.6-0.7,1.6-1.5S51.1,1,50.2,1c0,0,0,0,0,0h-17c-0.8,0-1.5,0.7-1.5,1.5S32.4,4.1,33.2,4.1z
	 M78.6,94.9h-4.8v-9.1c4.9-0.8,8.7-5,8.7-10.1s-3.8-9.3-8.7-10.1V44.1c0-9.6-7.9-17.5-17.5-17.5h-4.6V8.7c0-0.9-0.7-1.6-1.5-1.6h-17
	c-0.8,0-1.5,0.7-1.5,1.6V41h-0.5c-0.9,0-1.6,0.7-1.6,1.5c0,0.9,0.7,1.5,1.6,1.5H34v5.6c0,0.8,0.7,1.5,1.6,1.5h12.4
	c0.9,0,1.5-0.7,1.5-1.5v-5.6h2.8c0.9,0,1.5-0.7,1.5-1.5S53.1,41,52.3,41h-0.5V29.7h4.6c7.9,0,14.4,6.4,14.4,14.4v21.5
	c-4.9,0.8-8.7,5-8.7,10.1s3.8,9.3,8.7,10.1v9.1H3.9c0.7-1.8,2.4-3,4.3-3h57.9c0.9,0,1.5-0.7,1.5-1.6c0-0.9-0.7-1.5-1.5-1.5H49.4
	V61.6h12.9v0.5c0,0.9,0.7,1.5,1.6,1.5c0.9,0,1.5-0.7,1.5-1.5v-18c0-5-4.1-9.1-9.1-9.1c-0.9,0-1.5,0.7-1.5,1.6c0,0.9,0.7,1.5,1.5,1.5
	c3.3,0,6,2.7,6,6v14.4H24.8c-0.9,0-1.5,0.7-1.5,1.5c0,0.8,0.7,1.5,1.5,1.5h21.6v20.8H35.5c-0.9,0-1.6,0.7-1.6,1.6
	c0,0.8,0.7,1.6,1.6,1.6h10.8v3.3H8.2c-4.2,0-7.7,3.4-7.7,7.7C0.5,97.3,1.2,98,2,98h76.5c0.9,0,1.5-0.7,1.5-1.6
	C80.1,95.6,79.4,94.9,78.6,94.9z M46.3,48.2h-9.3v-4.1h9.3V48.2z M34.8,41V10.3h13.9V41L34.8,41z M65.1,75.7c0-3.9,3.2-7.1,7.1-7.1
	h0c3.9,0,7.1,3.2,7.1,7.1s-3.2,7.1-7.1,7.1S65.1,79.6,65.1,75.7z"/>
<path class="st1" d="M33.2,3.6h17c0.9,0,1.6-0.7,1.6-1.5s-0.7-1.6-1.5-1.6c0,0,0,0,0,0h-17c-0.8,0-1.5,0.7-1.5,1.5
	S32.4,3.6,33.2,3.6z M78.6,94.4h-4.8v-9.1c4.9-0.8,8.7-5,8.7-10.1s-3.8-9.3-8.7-10.1V43.6c0-9.6-7.9-17.5-17.5-17.5h-4.6V8.2
	c0-0.9-0.7-1.6-1.5-1.6h-17c-0.8,0-1.5,0.7-1.5,1.6v32.3h-0.5c-0.9,0-1.6,0.7-1.6,1.5c0,0.9,0.7,1.5,1.6,1.5H34v5.6
	c0,0.8,0.7,1.5,1.6,1.5h12.4c0.9,0,1.5-0.7,1.5-1.5v-5.6h2.8c0.9,0,1.5-0.7,1.5-1.5s-0.7-1.5-1.5-1.5h-0.5V29.3h4.6
	c7.9,0,14.4,6.4,14.4,14.4v21.5c-4.9,0.8-8.7,5-8.7,10.1s3.8,9.3,8.7,10.1v9.1H3.9c0.7-1.8,2.4-3,4.3-3h57.9c0.9,0,1.5-0.7,1.5-1.6
	c0-0.9-0.7-1.5-1.5-1.5H49.4V61.1h12.9v0.5c0,0.9,0.7,1.5,1.6,1.5c0.9,0,1.5-0.7,1.5-1.5v-18c0-5-4.1-9.1-9.1-9.1
	c-0.9,0-1.5,0.7-1.5,1.6c0,0.9,0.7,1.5,1.5,1.5c3.3,0,6,2.7,6,6V58H24.8c-0.9,0-1.5,0.7-1.5,1.5c0,0.8,0.7,1.5,1.5,1.5h21.6v20.8
	H35.5c-0.9,0-1.6,0.7-1.6,1.6c0,0.8,0.7,1.6,1.6,1.6h10.8v3.3H8.2c-4.2,0-7.7,3.4-7.7,7.7c0,0.9,0.7,1.6,1.5,1.6h76.5
	c0.9,0,1.5-0.7,1.5-1.6C80.1,95.1,79.4,94.4,78.6,94.4z M46.3,47.7h-9.3v-4.1h9.3V47.7z M34.8,40.5V9.8h13.9v30.7L34.8,40.5z
	 M65.1,75.2c0-3.9,3.2-7.1,7.1-7.1h0c3.9,0,7.1,3.2,7.1,7.1s-3.2,7.1-7.1,7.1S65.1,79.1,65.1,75.2z"/>
</svg>
