<svg xmlns="http://www.w3.org/2000/svg" width="99" height="98" viewBox="0 0 99 98"><path fill="#0f2740" d="M42.1 8.28h7.26a.86.86 0 0 0 0-1.72H42.1a.86.86 0 1 0 0 1.72zM92.62 89H73.35a3.28 3.28 0 0 0-3.03-2.03h-5V83.5l21.89-12.97a.85.85 0 0 0 .42-.74v-9.9a25.12 25.12 0 0 0-14.5-46.13c-2.08-4-5.17-7.38-8.98-9.8a25.43 25.43 0 0 0-35.34 8.18l-.5-.01a13.4 13.4 0 0 0-13.37 13.46 19.46 19.46 0 0 0 4.5 38.38H34v5.82c0 .31.16.59.42.74l21.5 12.75v3.7h-5A3.3 3.3 0 0 0 47.93 89H28.65a.86.86 0 0 0-.86.86v5.53c0 .47.39.86.86.86h19.4a3.28 3.28 0 0 0 2.9 1.75h19.37c1.26 0 2.35-.71 2.9-1.75h19.4c.47 0 .86-.39.86-.86v-5.53a.85.85 0 0 0-.86-.85zm-30.94-5.34V57.4L85.9 43.03V69.3zm-.86-27.76L36.56 41.52l24.26-14.38 24.27 14.38zM1.72 44.52c0-8.43 5.96-15.73 14.2-17.39h13.01a.86.86 0 0 0 0-1.71H16.65a11.68 11.68 0 0 1 12.56-11.54c.33.03.64-.13.8-.42a23.87 23.87 0 0 1 20.5-11.74c5.34 0 10.35 1.74 14.4 4.84h-9.5a.86.86 0 1 0 0 1.72h11.5a23.99 23.99 0 0 1 4.93 6.74c.15.3.47.5.82.48A23.4 23.4 0 0 1 87.63 57.8V41.52c0-.3-.16-.57-.4-.72l-.03-.02L61.26 25.4a.86.86 0 0 0-.88 0L34.44 40.78v.01a.85.85 0 0 0-.43.73v12.79H18.34a.86.86 0 0 0 0 1.72H34v6.23H19.43A17.75 17.75 0 0 1 1.72 44.52zm48.52 17.47a.86.86 0 0 0 .87-1.48l-15.38-9.12v-8.36L59.96 57.4v26.27L35.73 69.3V53.39zM29.51 90.72h18.16v3.81H29.5zm40.81 5.56H50.95c-.87 0-1.57-.7-1.57-1.56v-4.45c0-.87.7-1.57 1.57-1.57h5.85c.47 0 .86-.38.86-.86V84.3l2.72 1.62a.86.86 0 0 0 .88 0l2.35-1.4v3.32c0 .48.39.86.86.86h5.85c.87 0 1.57.7 1.57 1.57v4.45c0 .86-.7 1.56-1.57 1.56zm21.44-1.75H73.6v-3.81h18.16z"/></svg>