<svg xmlns="http://www.w3.org/2000/svg" width="83" height="98" viewBox="0 0 83 98"><path fill="#0f2740" d="M33.22 3.6H50.2a1.55 1.55 0 1 0 0-3.1H33.22c-.85 0-1.55.7-1.55 1.55 0 .85.7 1.55 1.55 1.55zm45.36 90.8h-4.76v-9.11c4.9-.75 8.68-4.99 8.68-10.1 0-5.11-3.78-9.35-8.68-10.1V43.62c0-9.63-7.86-17.47-17.51-17.47h-4.56V8.24c0-.86-.69-1.55-1.55-1.55H33.22c-.85 0-1.55.7-1.55 1.55V40.5h-.51c-.86 0-1.56.69-1.56 1.54 0 .86.7 1.55 1.56 1.55h2.82v5.64c0 .85.7 1.54 1.56 1.54h12.35c.86 0 1.55-.69 1.55-1.54v-5.64h2.83a1.54 1.54 0 1 0 0-3.1h-.52V29.25h4.56a14.4 14.4 0 0 1 14.4 14.38v21.47c-4.9.75-8.68 4.99-8.68 10.1 0 5.11 3.78 9.35 8.68 10.1v9.11H3.87a4.6 4.6 0 0 1 4.33-3.03h57.86a1.55 1.55 0 0 0 0-3.1H49.44V61.09h12.85v.52a1.55 1.55 0 0 0 3.1 0V43.62c0-5-4.07-9.06-9.08-9.06a1.55 1.55 0 0 0 0 3.1c3.3 0 5.98 2.67 5.98 5.96V58H24.75c-.85 0-1.55.69-1.55 1.55 0 .85.7 1.54 1.55 1.54h21.59v20.77h-10.8c-.86 0-1.56.69-1.56 1.55 0 .85.7 1.55 1.56 1.55h10.8v3.31H8.2a7.7 7.7 0 0 0-7.7 7.68c0 .86.7 1.55 1.55 1.55h76.53a1.55 1.55 0 0 0 0-3.1zM46.34 47.68h-9.25v-4.09h9.25zM34.77 40.5V9.79h13.88v30.7zm30.36 34.69c0-3.93 3.2-7.12 7.13-7.12h.01a7.13 7.13 0 1 1-7.14 7.12z"/><path fill="none" stroke="#fff" stroke-linecap="round" stroke-linejoin="round" stroke-miterlimit="50" d="M33.22 3.6H50.2a1.55 1.55 0 1 0 0-3.1H33.22c-.85 0-1.55.7-1.55 1.55 0 .85.7 1.55 1.55 1.55zm45.36 90.8h-4.76v-9.11c4.9-.75 8.68-4.99 8.68-10.1 0-5.11-3.78-9.35-8.68-10.1V43.62c0-9.63-7.86-17.47-17.51-17.47h-4.56V8.24c0-.86-.69-1.55-1.55-1.55H33.22c-.85 0-1.55.7-1.55 1.55V40.5h-.51c-.86 0-1.56.69-1.56 1.54 0 .86.7 1.55 1.56 1.55h2.82v5.64c0 .85.7 1.54 1.56 1.54h12.35c.86 0 1.55-.69 1.55-1.54v-5.64h2.83a1.54 1.54 0 1 0 0-3.1h-.52V29.25h4.56a14.4 14.4 0 0 1 14.4 14.38v21.47c-4.9.75-8.68 4.99-8.68 10.1 0 5.11 3.78 9.35 8.68 10.1v9.11H3.87a4.6 4.6 0 0 1 4.33-3.03h57.86a1.55 1.55 0 0 0 0-3.1H49.44V61.09h12.85v.52a1.55 1.55 0 0 0 3.1 0V43.62c0-5-4.07-9.06-9.08-9.06a1.55 1.55 0 0 0 0 3.1c3.3 0 5.98 2.67 5.98 5.96V58H24.75c-.85 0-1.55.69-1.55 1.55 0 .85.7 1.54 1.55 1.54h21.59v20.77h-10.8c-.86 0-1.56.69-1.56 1.55 0 .85.7 1.55 1.56 1.55h10.8v3.31H8.2a7.7 7.7 0 0 0-7.7 7.68c0 .86.7 1.55 1.55 1.55h76.53a1.55 1.55 0 0 0 0-3.1zM46.34 47.68h-9.25v-4.09h9.25zM34.77 40.5V9.79h13.88v30.7zm30.36 34.69c0-3.93 3.2-7.12 7.13-7.12h.01a7.13 7.13 0 1 1-7.14 7.12z"/></svg>