<svg xmlns="http://www.w3.org/2000/svg" width="104" height="84" viewBox="0 0 104 84"><path fill="#0f2740" d="M101.03 14.89H77.3V2.95A2.97 2.97 0 0 0 74.32 0H29.68a2.96 2.96 0 0 0-2.98 2.95v11.94H2.97A2.97 2.97 0 0 0 0 17.85v63.2A2.96 2.96 0 0 0 2.97 84h98.06a2.96 2.96 0 0 0 2.97-2.95v-63.2a2.97 2.97 0 0 0-2.97-2.96zm-6.21 61.16H67.8a.88.88 0 0 0-.89.88c0 .49.4.88.89.88h27.02v4.43H9.18V60.61h28.58c.49 0 .88-.39.88-.88a.87.87 0 0 0-.88-.88H9.18V45.67h10.06v4.55c0 1.34 1.09 2.42 2.43 2.42h5.57a2.43 2.43 0 0 0 2.43-2.42v-4.55h44.66v4.55a2.42 2.42 0 0 0 2.43 2.42h5.57a2.42 2.42 0 0 0 2.43-2.42v-4.55h10.06zM21.01 50.22v-9.37c0-.36.3-.66.66-.66h5.57c.36 0 .66.3.66.66v9.37c0 .36-.3.66-.66.66h-5.57a.66.66 0 0 1-.66-.66zm55.09 0v-9.37c0-.36.3-.66.66-.66h5.57c.37 0 .66.3.66.66v9.37c0 .36-.29.66-.66.66h-5.57a.67.67 0 0 1-.66-.66zm8.67-6.32v-3.05c0-1.33-1.1-2.42-2.44-2.42h-5.57a2.43 2.43 0 0 0-2.43 2.42v3.05H29.67v-3.05c0-1.33-1.09-2.42-2.43-2.42h-5.57a2.43 2.43 0 0 0-2.44 2.42v3.05H1.77V29.53h17.21c.49 0 .89-.4.89-.88 0-.49-.4-.88-.89-.88H1.78V23.7h100.45v20.2zM28.47 2.95c0-.65.54-1.19 1.2-1.19h44.65c.66 0 1.2.54 1.2 1.19v11.94h-2.88V7.04a2.58 2.58 0 0 0-2.58-2.56H33.94a2.58 2.58 0 0 0-2.58 2.56v7.85h-2.88zm4.66 11.94V7.04c0-.44.36-.8.81-.8h36.12a.8.8 0 0 1 .81.8v7.85zM2.97 16.65h98.06c.66 0 1.2.54 1.2 1.2v4.09H1.77v-4.09c0-.66.54-1.2 1.2-1.2zm-1.2 64.4V45.67h5.64v36.57H2.97a1.2 1.2 0 0 1-1.2-1.19zm99.26 1.19h-4.44V45.67h5.64v35.38a1.2 1.2 0 0 1-1.2 1.19z"/></svg>