<svg xmlns="http://www.w3.org/2000/svg" width="20" height="20" viewBox="0 0 20 20"><path fill="#b3fcff" d="M19.3 15.78a1 1 0 0 1-.28.85l-2.67 2.8a1.88 1.88 0 0 1-1.43.57 8.8 8.8 0 0 1-3.33-.82c-.82-.36-1.76-.9-2.8-1.62a21.27 21.27 0 0 1-3.34-2.96 22.9 22.9 0 0 1-2.34-2.8 20.16 20.16 0 0 1-1.49-2.47A13.76 13.76 0 0 1 .4 5.7a5.47 5.47 0 0 1-.06-1.47c.02-.2.08-.4.18-.6.1-.21.2-.38.34-.5L3.53.3c.2-.2.4-.3.65-.3.17 0 .33.05.46.16.13.1.25.24.34.4l2.15 4.3c.13.22.16.46.1.73-.05.27-.16.5-.34.68l-.98 1.04a.36.36 0 0 0-.07.14.55.55 0 0 0-.03.16c.05.3.17.63.36 1.01.16.34.4.76.74 1.24.34.49.81 1.05 1.43 1.69.6.65 1.14 1.15 1.61 1.51.47.36.86.63 1.18.8.31.17.55.27.72.3l.25.06c.03 0 .07-.01.13-.04.06-.02.1-.04.13-.07l1.15-1.23c.24-.22.52-.34.85-.34a1 1 0 0 1 .54.13h.02l3.88 2.41c.28.19.45.42.5.7z"/></svg>