<svg xmlns="http://www.w3.org/2000/svg" width="17" height="13" viewBox="0 0 17 13"><path fill="#fff" d="M16.31 1.77c-.63.25-1.26.41-1.88.47.71-.4 1.19-.95 1.44-1.67a6.7 6.7 0 0 1-2.08.73 3.28 3.28 0 0 0-2.4-.95 3.3 3.3 0 0 0-2.32.88 2.82 2.82 0 0 0-.88 2.84 9.84 9.84 0 0 1-3.77-.94A9.16 9.16 0 0 1 1.43.9a2.79 2.79 0 0 0-.05 2.97c.26.44.62.8 1.06 1.08a3.47 3.47 0 0 1-1.48-.39v.04c0 .73.25 1.37.75 1.93.49.55 1.12.9 1.88 1.04a4.6 4.6 0 0 1-1.48.06c.21.6.59 1.1 1.16 1.49a3.4 3.4 0 0 0 1.9.61 6.76 6.76 0 0 1-4.86 1.25 10.34 10.34 0 0 0 8.32.85 8.67 8.67 0 0 0 4.49-3.34 8.1 8.1 0 0 0 1.56-4.76l-.01-.4a6.58 6.58 0 0 0 1.64-1.56z"/></svg>