<svg xmlns="http://www.w3.org/2000/svg" width="17" height="8" viewBox="0 0 17 8"><path fill="#fff" d="M14.05 5.09c.53.45 1.09.89 1.57 1.39.21.22.41.45.56.71.22.37.02.78-.35.8h-2.34a1.9 1.9 0 0 1-1.48-.53c-.32-.29-.62-.6-.93-.9-.13-.12-.26-.24-.42-.33-.32-.18-.6-.13-.78.17-.18.29-.22.62-.24.96-.03.48-.19.61-.74.63a6.68 6.68 0 0 1-3.34-.63A7.04 7.04 0 0 1 3.32 5.5 24.04 24.04 0 0 1 .36.85C.18.48.31.29.77.28h2.28c.31 0 .52.16.63.42.42.89.92 1.74 1.55 2.53.17.21.34.42.59.57.27.16.47.11.6-.16.08-.17.12-.35.13-.53.06-.62.07-1.24-.03-1.86C6.45.86 6.2.61 5.77.54 5.55.5 5.58.43 5.69.31A.87.87 0 0 1 6.4 0h2.64c.41.07.5.24.56.61v2.58c0 .14.08.57.37.66.24.07.39-.1.53-.23a7.97 7.97 0 0 0 1.48-2.01c.18-.32.33-.65.48-.98.11-.24.29-.37.6-.36h2.53l.23.01c.43.07.54.23.41.6a5.33 5.33 0 0 1-1.01 1.54c-.42.52-.87 1.02-1.29 1.54-.39.48-.36.71.12 1.13z"/></svg>