<?xml version="1.0" encoding="UTF-8"?><!DOCTYPE svg PUBLIC "-//W3C//DTD SVG 1.1//EN" "http://www.w3.org/Graphics/SVG/1.1/DTD/svg11.dtd"><svg xmlns="http://www.w3.org/2000/svg"><symbol id="icon-arr_l" viewBox="0 0 11 18">
    <path d="M.62 7.54l5.91-5.95c.8-.8 2.1-.8 2.89 0 .8.8.8 2.11 0 2.91L4.96 8.99l4.46 4.5c.8.8.8 2.1 0 2.91-.79.8-2.09.8-2.89 0L.62 10.45c-.8-.81-.8-2.11 0-2.91z"/>
</symbol><symbol id="icon-arr_r" viewBox="0 0 11 17">
    <path d="M9.82 6.73L3.93.78a2.02 2.02 0 0 0-2.89 0c-.79.8-.79 2.1 0 2.91L5.5 8.18l-4.46 4.49a2.08 2.08 0 0 0 0 2.91c.8.81 2.09.81 2.89 0l5.89-5.94c.8-.81.8-2.11 0-2.91z"/>
</symbol><symbol id="icon-balloon" viewBox="0 0 13 21">
    <path d="M6.5 1C2.9 1 0 4.13 0 8c0 5.25 6.5 13 6.5 13S13 13.25 13 8c0-3.87-2.9-7-6.5-7zm0 9.5c-1.28 0-2.32-1.12-2.32-2.5S5.22 5.5 6.5 5.5c1.28 0 2.32 1.12 2.32 2.5s-1.04 2.5-2.32 2.5z"/>
</symbol><symbol id="icon-fb" viewBox="0 0 7 16">
    <path d="M1.51 3.1v2.2H0V8h1.51v8h3.11V8h2.09S6.9 6.7 7 5.29H4.63V3.45c0-.28.34-.65.68-.65H7V0H4.7C1.44 0 1.51 2.7 1.51 3.1z"/>
</symbol><symbol id="icon-mail" viewBox="0 0 21 16">
    <path d="M2.42 4.78L4.71 6.3l2.92 1.94.48.33a20.87 20.87 0 0 0 1.18.75c.23.13.44.22.64.29.2.06.39.1.56.1h.02c.17 0 .36-.04.56-.1a10.5 10.5 0 0 0 1.82-1.04l.48-.33 5.22-3.46c.54-.36 1-.8 1.36-1.31a2.7 2.7 0 0 0 .55-1.61c0-.47-.18-.87-.53-1.2-.35-.34-.77-.5-1.26-.5H2.29C1.71.15 1.27.33.96.7.65 1.08.5 1.54.5 2.09c0 .45.2.94.61 1.46s.85.93 1.31 1.23zm16.96 1.14a220.1 220.1 0 0 0-6.59 4.37c-.26.17-.61.34-1.05.52-.44.17-.85.26-1.23.26h-.02c-.38 0-.79-.1-1.23-.26a6.22 6.22 0 0 1-1.05-.52c-.27-.16-.61-.4-1.04-.7-1-.7-2.85-1.92-5.54-3.67-.43-.27-.8-.58-1.13-.93v8.46c0 .47.17.87.52 1.2.35.34.77.5 1.27.5h16.42c.5 0 .92-.16 1.27-.5.35-.33.52-.73.52-1.2V5c-.32.34-.69.65-1.12.93z"/>
</symbol><symbol id="icon-minus" viewBox="0 0 16 16">
    <path d="M10.5 9a1 1 0 0 0 0-2h-5a1 1 0 1 0 0 2zM16 8A8 8 0 1 1 0 8a8 8 0 0 1 16 0zm-1.5 0a6.5 6.5 0 1 0-13.02.02A6.5 6.5 0 0 0 14.5 8z"/>
</symbol><symbol id="icon-plus" viewBox="0 0 16 16">
    <path d="M10.5 7H9V5.5a1 1 0 0 0-2 0V7H5.5a1 1 0 1 0 0 2H7v1.5a1 1 0 0 0 2 0V9h1.5a1 1 0 0 0 0-2zM16 8A8 8 0 1 1 0 8a8 8 0 0 1 16 0zm-1.5 0a6.5 6.5 0 1 0-13.02.02A6.5 6.5 0 0 0 14.5 8z"/>
</symbol><symbol id="icon-quotes" viewBox="0 0 30 24">
    <path d="M29.99 8.08c0-5.17-3.16-8.02-6.64-8.02a5.72 5.72 0 0 0-5.59 5.7c0 3.16 2.21 5.37 5.17 5.37.42 0 1.16-.1 1.37-.21-.43 3.38-3.38 7.59-6.75 9.81l3.9 3.26c4.74-3.47 8.54-9.48 8.54-15.91zM4.49 23.99l-3.9-3.26C3.94 18.51 7 14.3 7.42 10.92c-.2.11-.95.21-1.47.21C3 11.13.9 8.92.9 5.76.9 2.7 3.32.06 6.48.06c3.48 0 6.64 2.85 6.64 8.02 0 6.43-3.8 12.44-8.64 15.91z"/>
</symbol><symbol id="icon-search" viewBox="0 0 13 12">
    <path d="M11.71 10.29L9.1 7.69l-.05-.05a4.94 4.94 0 1 0-1.41 1.41l.04.05 2.61 2.6a1 1 0 0 0 1.42-1.42zM4.93 8.16a3.22 3.22 0 1 1 0-6.44 3.22 3.22 0 0 1 0 6.44z"/>
</symbol><symbol id="icon-services-1" viewBox="0 0 98 97">
    <path d="M25.59 38.24H3.46A3.48 3.48 0 0 0 0 41.72v51.8A3.47 3.47 0 0 0 3.46 97H25.6c1.9 0 3.46-1.56 3.46-3.48v-51.8a3.47 3.47 0 0 0-3.46-3.48zm0 57.04H3.46c-.97 0-1.75-.79-1.75-1.76V74.28h14.82a.86.86 0 0 0 0-1.72H1.7V41.72c0-.97.78-1.77 1.75-1.77H25.6c.97 0 1.75.8 1.75 1.77v37.3h-4.92a.86.86 0 0 0 0 1.72h4.92v8.25H9.17a.85.85 0 1 0 0 1.71h18.17v2.82c0 .97-.78 1.76-1.75 1.76zm34.47-76.16H37.94a3.47 3.47 0 0 0-3.45 3.48v70.92A3.47 3.47 0 0 0 37.94 97h22.13c1.9 0 3.46-1.56 3.46-3.48V22.6a3.47 3.47 0 0 0-3.47-3.48zm0 76.16H37.94c-.96 0-1.75-.79-1.75-1.76v-9.55h10.74a.86.86 0 1 0 0-1.72H36.18V22.6c0-.97.79-1.76 1.76-1.76h22.13c.96 0 1.75.79 1.75 1.76v33.8H43.17a.85.85 0 0 0 0 1.71h18.65v9.73h-7.14a.86.86 0 0 0 0 1.72h7.14v23.95c0 .97-.79 1.76-1.76 1.76zM94.54 0H72.4a3.47 3.47 0 0 0-3.46 3.48v90.04A3.47 3.47 0 0 0 72.4 97h22.13c1.9 0 3.46-1.56 3.46-3.48V3.48A3.47 3.47 0 0 0 94.54 0zm0 95.28H72.4c-.97 0-1.76-.79-1.76-1.76V82.89H91.1a.85.85 0 1 0 0-1.71H70.65V37.39h15.76a.86.86 0 0 0 0-1.71H70.65V3.48c0-.97.8-1.76 1.76-1.76h22.13c.97 0 1.75.79 1.75 1.76v56.43h-6.94a.85.85 0 0 0 0 1.71h6.94v31.9c0 .97-.78 1.76-1.75 1.76zM21.87 65.05c.3-.22.43-.61.31-.96l-2.42-7.5 6.34-4.64a.85.85 0 0 0-.5-1.55h-7.84l-2.42-7.5a.86.86 0 0 0-1.63 0l-2.42 7.5H3.45a.86.86 0 0 0-.5 1.55l6.34 4.64-2.42 7.5c-.12.35.01.74.3.96a.879.879 0 0 0 1.01 0l6.35-4.64 6.34 4.64c.3.22.7.22 1 0zm-6.84-6.39a.85.85 0 0 0-.5-.17.85.85 0 0 0-.5.17L9.3 62.11l1.8-5.58a.85.85 0 0 0-.3-.96l-4.72-3.45h5.83c.37 0 .7-.24.81-.6l1.8-5.58 1.8 5.58c.12.36.45.6.82.6h5.83l-4.72 3.45c-.3.21-.42.6-.3.96l1.8 5.58zM49 41.56l6.34 4.63a.816.816 0 0 0 1 0c.3-.21.43-.6.32-.96l-2.43-7.5 6.35-4.63a.86.86 0 0 0-.5-1.55h-7.85l-2.42-7.5a.86.86 0 0 0-.81-.6c-.37 0-.7.25-.81.6l-2.42 7.5h-7.85c-.37 0-.7.24-.8.6-.12.34 0 .73.3.95l6.35 4.64-2.43 7.49c-.11.36.01.75.31.96.3.22.7.22 1 0zm-8.45-8.3h5.83c.37 0 .7-.24.82-.59L49 27.1l1.8 5.58c.12.35.45.6.82.6h5.83l-4.72 3.44a.87.87 0 0 0-.31.96l1.8 5.58-4.72-3.45a.85.85 0 0 0-1 0l-4.72 3.45 1.8-5.58a.86.86 0 0 0-.3-.96zm49.77-6.2a.85.85 0 0 0 .81-1.12l-2.42-7.5 6.34-4.64a.86.86 0 0 0-.5-1.55h-7.84l-2.42-7.5a.85.85 0 0 0-1.63 0l-2.42 7.5H72.4c-.37 0-.7.24-.81.6-.12.35 0 .74.3.95l6.35 4.64-2.42 7.5a.85.85 0 0 0 1.31.96l6.34-4.64 6.35 4.64c.15.1.32.16.5.16zm-6.34-6.55a.85.85 0 0 0-1 0l-4.73 3.45 1.8-5.59a.86.86 0 0 0-.3-.95l-4.73-3.45h5.84c.37 0 .7-.24.81-.6l1.8-5.58 1.8 5.58c.12.36.45.6.82.6h5.83l-4.72 3.45c-.3.21-.42.6-.3.95l1.8 5.59z"/>
</symbol><symbol id="icon-services-2" viewBox="0 0 99 98">
    <path d="M42.1 8.28h7.26a.86.86 0 0 0 0-1.72H42.1a.86.86 0 1 0 0 1.72zM92.62 89H73.35a3.28 3.28 0 0 0-3.03-2.03h-5V83.5l21.89-12.97a.85.85 0 0 0 .42-.74v-9.9a25.12 25.12 0 0 0-14.5-46.13c-2.08-4-5.17-7.38-8.98-9.8a25.43 25.43 0 0 0-35.34 8.18l-.5-.01a13.4 13.4 0 0 0-13.37 13.46 19.46 19.46 0 0 0 4.5 38.38H34v5.82c0 .31.16.59.42.74l21.5 12.75v3.7h-5A3.3 3.3 0 0 0 47.93 89H28.65a.86.86 0 0 0-.86.86v5.53c0 .47.39.86.86.86h19.4a3.28 3.28 0 0 0 2.9 1.75h19.37c1.26 0 2.35-.71 2.9-1.75h19.4c.47 0 .86-.39.86-.86v-5.53a.85.85 0 0 0-.86-.85zm-30.94-5.34V57.4L85.9 43.03V69.3zm-.86-27.76L36.56 41.52l24.26-14.38 24.27 14.38zM1.72 44.52c0-8.43 5.96-15.73 14.2-17.39h13.01a.86.86 0 0 0 0-1.71H16.65a11.68 11.68 0 0 1 12.56-11.54c.33.03.64-.13.8-.42a23.87 23.87 0 0 1 20.5-11.74c5.34 0 10.35 1.74 14.4 4.84h-9.5a.86.86 0 1 0 0 1.72h11.5a23.99 23.99 0 0 1 4.93 6.74c.15.3.47.5.82.48a23.4 23.4 0 0 1 14.97 42.3V41.52c0-.3-.16-.57-.4-.72l-.03-.02L61.26 25.4a.86.86 0 0 0-.88 0L34.44 40.78v.01a.85.85 0 0 0-.43.73v12.79H18.34a.86.86 0 0 0 0 1.72H34v6.23H19.43A17.75 17.75 0 0 1 1.72 44.52zm48.52 17.47a.86.86 0 0 0 .87-1.48l-15.38-9.12v-8.36L59.96 57.4v26.27L35.73 69.3V53.39zM29.51 90.72h18.16v3.81H29.5zm40.81 5.56H50.95c-.87 0-1.57-.7-1.57-1.56v-4.45c0-.87.7-1.57 1.57-1.57h5.85c.47 0 .86-.38.86-.86V84.3l2.72 1.62a.86.86 0 0 0 .88 0l2.35-1.4v3.32c0 .48.39.86.86.86h5.85c.87 0 1.57.7 1.57 1.57v4.45c0 .86-.7 1.56-1.57 1.56zm21.44-1.75H73.6v-3.81h18.16z"/>
</symbol><symbol id="icon-services-3" viewBox="0 0 105 97">
    <path d="M8.75 14.44V27.2a4.55 4.55 0 0 0 2.59 3.91l3.16 1.37c1.24.53 3.25.95 4.6.95h66.8c1.35 0 3.37-.42 4.6-.95l3.17-1.37a4.55 4.55 0 0 0 2.58-3.9V14.43a4.56 4.56 0 0 0-2.58-3.91L90.5 9.17a13.63 13.63 0 0 0-4.6-.95H19.1c-1.34 0-3.36.42-4.6.95l-3.16 1.36a4.56 4.56 0 0 0-2.59 3.91zm3.32-2.21l3.17-1.37c1-.43 2.77-.8 3.86-.8h66.8c1.1 0 2.86.37 3.86.8l3.17 1.37a2.7 2.7 0 0 1 1.46 2.21V27.2a2.7 2.7 0 0 1-1.46 2.22l-3.17 1.37c-1 .43-2.77.79-3.86.79H19.1c-1.1 0-2.86-.36-3.86-.8l-3.17-1.36a2.7 2.7 0 0 1-1.46-2.22v-8.5h21.9a.93.93 0 1 0 0-1.84H10.6v-2.42c0-.84.68-1.88 1.46-2.21zm57.72 9.71h15.24a2.76 2.76 0 0 0 2.77-2.75v-3.65a2.76 2.76 0 0 0-2.77-2.75H69.8a2.76 2.76 0 0 0-2.77 2.75v3.65a2.76 2.76 0 0 0 2.77 2.75zm0-7.3h15.24c.5 0 .91.4.91.9v3.65c0 .5-.4.9-.9.9H69.78a.9.9 0 0 1-.9-.9v-3.65c0-.5.4-.9.9-.9zm20.7 22.2a13.6 13.6 0 0 0-4.59-.94H19.1c-1.35 0-3.36.41-4.6.94l-3.17 1.37a4.56 4.56 0 0 0-2.58 3.91v12.76a4.55 4.55 0 0 0 2.58 3.91l3.17 1.37c1.24.53 3.25.94 4.6.94h66.8c1.35 0 3.36-.41 4.6-.94l3.16-1.37a4.55 4.55 0 0 0 2.59-3.91V42.12a4.56 4.56 0 0 0-2.59-3.91zM74.65 53.13a.92.92 0 0 0-.93.92c0 .51.42.92.93.92H94.4c-.05.83-.71 1.8-1.46 2.13l-3.17 1.36c-1 .43-2.77.8-3.86.8H19.1c-1.1 0-2.86-.37-3.86-.8l-3.17-1.36a2.7 2.7 0 0 1-1.46-2.22v-1.64h18.62c.5 0 .92-.42.92-.93a.92.92 0 0 0-.92-.92H10.6v-5.32h12.28c.52 0 .93-.41.93-.92a.93.93 0 0 0-.93-.93H10.61v-2.1c0-.85.68-1.88 1.46-2.22l3.17-1.36c1-.43 2.77-.8 3.86-.8h66.8c1.1 0 2.86.37 3.86.8l3.17 1.36a2.7 2.7 0 0 1 1.46 2.22v11.01zm10.4-12.67H69.78a2.76 2.76 0 0 0-2.77 2.75v3.66a2.76 2.76 0 0 0 2.77 2.75h15.24a2.76 2.76 0 0 0 2.77-2.75v-3.66a2.76 2.76 0 0 0-2.77-2.75zm.9 6.41c0 .5-.4.9-.9.9H69.78a.9.9 0 0 1-.9-.9v-3.66c0-.5.4-.9.9-.9h15.24c.5 0 .91.4.91.9zm10.3 35.69V69.8a4.55 4.55 0 0 0-2.58-3.91l-3.16-1.37a13.65 13.65 0 0 0-4.6-.95H19.1c-1.35 0-3.37.42-4.6.95l-3.17 1.37a4.55 4.55 0 0 0-2.58 3.91v12.76a4.55 4.55 0 0 0 2.58 3.91l3.17 1.36c1.24.54 3.25.95 4.6.95h66.8c1.35 0 3.36-.41 4.6-.95l3.16-1.36a4.55 4.55 0 0 0 2.59-3.91zm-3.31 2.21l-3.17 1.37c-1 .43-2.77.79-3.86.79H19.1c-1.1 0-2.86-.36-3.86-.79l-3.17-1.36a2.72 2.72 0 0 1-1.46-2.22V71.7h6.83a.92.92 0 1 0 0-1.85H10.6v-.05c0-.85.68-1.88 1.46-2.22l3.17-1.37c1-.43 2.77-.79 3.86-.79h66.8c1.1 0 2.86.36 3.86.79l3.17 1.37a2.7 2.7 0 0 1 1.46 2.22v11.84h-4.25a.92.92 0 0 0-.92.92c0 .51.41.92.92.92h4.02a2.59 2.59 0 0 1-1.23 1.29zm-7.9-16.63H69.8a2.76 2.76 0 0 0-2.77 2.75v3.65a2.76 2.76 0 0 0 2.77 2.75h15.24a2.76 2.76 0 0 0 2.77-2.75v-3.65a2.76 2.76 0 0 0-2.77-2.75zm.91 6.4c0 .5-.4.91-.9.91H69.78c-.5 0-.9-.41-.9-.91v-3.65c0-.5.4-.9.9-.9h15.24c.5 0 .91.4.91.9zm-73.79 15.5l-4 .01a.93.93 0 0 1-.94-.93V7.88c0-.51.42-.93.93-.93h4.1c.51 0 .93-.41.93-.92V2.99A3 3 0 0 0 10.15 0H3.01A3 3 0 0 0 0 3v91a3 3 0 0 0 3.01 3h7.14a3 3 0 0 0 3.02-3v-3.04c0-.25-.12-.5-.31-.67a.97.97 0 0 0-.7-.25zM11.31 94c0 .64-.52 1.15-1.16 1.15H3.01c-.64 0-1.15-.51-1.15-1.15V3c0-.64.51-1.15 1.15-1.15h7.14c.64 0 1.16.51 1.16 1.15v2.1H8.14a2.78 2.78 0 0 0-2.78 2.78v81.24a2.78 2.78 0 0 0 2.78 2.77h3.17zm90.68-94h-7.14a3 3 0 0 0-3.02 3v3.04c0 .25.12.5.31.67.19.18.45.27.7.25h4.02c.51 0 .93.4.93.92v81.24c0 .51-.42.93-.93.93h-4.1a.92.92 0 0 0-.93.92V94a3 3 0 0 0 3.02 3h7.14a3 3 0 0 0 3.01-3V3a3 3 0 0 0-3.01-3zm1.15 94c0 .64-.52 1.15-1.15 1.15h-7.14c-.64 0-1.16-.51-1.16-1.15v-2.11h3.17a2.78 2.78 0 0 0 2.78-2.77V7.88a2.78 2.78 0 0 0-2.78-2.77h-3.17V3c0-.64.52-1.15 1.16-1.15h7.14c.64 0 1.15.51 1.15 1.15z"/>
</symbol><symbol id="icon-services-4" viewBox="0 0 104 84">
    <path d="M101.03 14.89H77.3V2.95A2.97 2.97 0 0 0 74.32 0H29.68a2.96 2.96 0 0 0-2.98 2.95v11.94H2.97A2.97 2.97 0 0 0 0 17.85v63.2A2.96 2.96 0 0 0 2.97 84h98.06a2.96 2.96 0 0 0 2.97-2.95v-63.2a2.97 2.97 0 0 0-2.97-2.96zm-6.21 61.16H67.8a.88.88 0 0 0-.89.88c0 .49.4.88.89.88h27.02v4.43H9.18V60.61h28.58c.49 0 .88-.39.88-.88a.87.87 0 0 0-.88-.88H9.18V45.67h10.06v4.55c0 1.34 1.09 2.42 2.43 2.42h5.57a2.43 2.43 0 0 0 2.43-2.42v-4.55h44.66v4.55a2.42 2.42 0 0 0 2.43 2.42h5.57a2.42 2.42 0 0 0 2.43-2.42v-4.55h10.06zM21.01 50.22v-9.37c0-.36.3-.66.66-.66h5.57c.36 0 .66.3.66.66v9.37c0 .36-.3.66-.66.66h-5.57a.66.66 0 0 1-.66-.66zm55.09 0v-9.37c0-.36.3-.66.66-.66h5.57c.37 0 .66.3.66.66v9.37c0 .36-.29.66-.66.66h-5.57a.67.67 0 0 1-.66-.66zm8.67-6.32v-3.05c0-1.33-1.1-2.42-2.44-2.42h-5.57a2.43 2.43 0 0 0-2.43 2.42v3.05H29.67v-3.05a2.43 2.43 0 0 0-2.43-2.42h-5.57a2.43 2.43 0 0 0-2.44 2.42v3.05H1.77V29.53h17.21c.49 0 .89-.4.89-.88 0-.49-.4-.88-.89-.88H1.78V23.7h100.45v20.2zM28.47 2.95c0-.65.54-1.19 1.2-1.19h44.65c.66 0 1.2.54 1.2 1.19v11.94h-2.88V7.04a2.58 2.58 0 0 0-2.58-2.56H33.94a2.58 2.58 0 0 0-2.58 2.56v7.85h-2.88zm4.66 11.94V7.04c0-.44.36-.8.81-.8h36.12a.8.8 0 0 1 .81.8v7.85zM2.97 16.65h98.06c.66 0 1.2.54 1.2 1.2v4.09H1.77v-4.09c0-.66.54-1.2 1.2-1.2zm-1.2 64.4V45.67h5.64v36.57H2.97a1.2 1.2 0 0 1-1.2-1.19zm99.26 1.19h-4.44V45.67h5.64v35.38a1.2 1.2 0 0 1-1.2 1.19z"/>
</symbol><symbol id="icon-services-5" viewBox="0 0 83 98">
    <style>
        .st0,.st1{fill:#0f2740;stroke:#fff;stroke-miterlimit:10}.st1{fill:none;stroke-width:.5;stroke-linecap:round;stroke-linejoin:round;stroke-miterlimit:50}
    </style>
    <path class="st0" d="M33.2 4.1h17c.9 0 1.6-.7 1.6-1.5S51.1 1 50.2 1h-17c-.8 0-1.5.7-1.5 1.5s.7 1.6 1.5 1.6zm45.4 90.8h-4.8v-9.1c4.9-.8 8.7-5 8.7-10.1s-3.8-9.3-8.7-10.1V44.1c0-9.6-7.9-17.5-17.5-17.5h-4.6V8.7c0-.9-.7-1.6-1.5-1.6h-17c-.8 0-1.5.7-1.5 1.6V41h-.5c-.9 0-1.6.7-1.6 1.5 0 .9.7 1.5 1.6 1.5H34v5.6c0 .8.7 1.5 1.6 1.5H48c.9 0 1.5-.7 1.5-1.5V44h2.8c.9 0 1.5-.7 1.5-1.5s-.7-1.5-1.5-1.5h-.5V29.7h4.6c7.9 0 14.4 6.4 14.4 14.4v21.5c-4.9.8-8.7 5-8.7 10.1s3.8 9.3 8.7 10.1v9.1H3.9c.7-1.8 2.4-3 4.3-3h57.9c.9 0 1.5-.7 1.5-1.6 0-.9-.7-1.5-1.5-1.5H49.4V61.6h12.9v.5c0 .9.7 1.5 1.6 1.5.9 0 1.5-.7 1.5-1.5v-18c0-5-4.1-9.1-9.1-9.1-.9 0-1.5.7-1.5 1.6 0 .9.7 1.5 1.5 1.5 3.3 0 6 2.7 6 6v14.4H24.8c-.9 0-1.5.7-1.5 1.5s.7 1.5 1.5 1.5h21.6v20.8H35.5c-.9 0-1.6.7-1.6 1.6 0 .8.7 1.6 1.6 1.6h10.8v3.3H8.2C4 88.8.5 92.2.5 96.5c0 .8.7 1.5 1.5 1.5h76.5c.9 0 1.5-.7 1.5-1.6.1-.8-.6-1.5-1.4-1.5zM46.3 48.2H37v-4.1h9.3v4.1zM34.8 41V10.3h13.9V41H34.8zm30.3 34.7c0-3.9 3.2-7.1 7.1-7.1 3.9 0 7.1 3.2 7.1 7.1s-3.2 7.1-7.1 7.1-7.1-3.2-7.1-7.1z"/>
    <path class="st1" d="M33.2 3.6h17c.9 0 1.6-.7 1.6-1.5S51.1.5 50.3.5h-17c-.8 0-1.5.7-1.5 1.5s.6 1.6 1.4 1.6zm45.4 90.8h-4.8v-9.1c4.9-.8 8.7-5 8.7-10.1s-3.8-9.3-8.7-10.1V43.6c0-9.6-7.9-17.5-17.5-17.5h-4.6V8.2c0-.9-.7-1.6-1.5-1.6h-17c-.8 0-1.5.7-1.5 1.6v32.3h-.5c-.9 0-1.6.7-1.6 1.5 0 .9.7 1.5 1.6 1.5H34v5.6c0 .8.7 1.5 1.6 1.5H48c.9 0 1.5-.7 1.5-1.5v-5.6h2.8c.9 0 1.5-.7 1.5-1.5s-.7-1.5-1.5-1.5h-.5V29.3h4.6c7.9 0 14.4 6.4 14.4 14.4v21.5c-4.9.8-8.7 5-8.7 10.1s3.8 9.3 8.7 10.1v9.1H3.9c.7-1.8 2.4-3 4.3-3h57.9c.9 0 1.5-.7 1.5-1.6 0-.9-.7-1.5-1.5-1.5H49.4V61.1h12.9v.5c0 .9.7 1.5 1.6 1.5.9 0 1.5-.7 1.5-1.5v-18c0-5-4.1-9.1-9.1-9.1-.9 0-1.5.7-1.5 1.6 0 .9.7 1.5 1.5 1.5 3.3 0 6 2.7 6 6V58H24.8c-.9 0-1.5.7-1.5 1.5S24 61 24.8 61h21.6v20.8H35.5c-.9 0-1.6.7-1.6 1.6 0 .8.7 1.6 1.6 1.6h10.8v3.3H8.2C4 88.3.5 91.7.5 96c0 .9.7 1.6 1.5 1.6h76.5c.9 0 1.5-.7 1.5-1.6.1-.9-.6-1.6-1.4-1.6zM46.3 47.7H37v-4.1h9.3v4.1zm-11.5-7.2V9.8h13.9v30.7H34.8zm30.3 34.7c0-3.9 3.2-7.1 7.1-7.1 3.9 0 7.1 3.2 7.1 7.1s-3.2 7.1-7.1 7.1-7.1-3.2-7.1-7.1z"/>
</symbol><symbol id="icon-share" viewBox="0 0 18 20">
    <path d="M15 14.14c-.76 0-1.44.3-1.96.77l-7.13-4.17c.05-.23.1-.46.1-.7 0-.24-.05-.47-.1-.7l7.05-4.13A3 3 0 0 0 18 3.01a3 3 0 1 0-6 0c0 .24.04.47.09.7L5.04 7.84A2.98 2.98 0 0 0 0 10.04a3 3 0 0 0 5.04 2.2l7.12 4.17A2.93 2.93 0 0 0 15 20a2.93 2.93 0 0 0 0-5.86z"/>
</symbol><symbol id="icon-tel" viewBox="0 0 20 20">
    <path d="M19.3 15.78a1 1 0 0 1-.28.85l-2.67 2.8a1.88 1.88 0 0 1-1.43.57 8.8 8.8 0 0 1-3.33-.82c-.82-.36-1.76-.9-2.8-1.62a21.27 21.27 0 0 1-3.34-2.96 22.9 22.9 0 0 1-2.34-2.8 20.16 20.16 0 0 1-1.49-2.47A13.76 13.76 0 0 1 .4 5.7a5.47 5.47 0 0 1-.06-1.47c.02-.2.08-.4.18-.6.1-.21.2-.38.34-.5L3.53.3c.2-.2.4-.3.65-.3.17 0 .33.05.46.16.13.1.25.24.34.4l2.15 4.3c.13.22.16.46.1.73-.05.27-.16.5-.34.68l-.98 1.04a.36.36 0 0 0-.07.14.55.55 0 0 0-.03.16c.05.3.17.63.36 1.01.16.34.4.76.74 1.24.34.49.81 1.05 1.43 1.69.6.65 1.14 1.15 1.61 1.51.47.36.86.63 1.18.8.31.17.55.27.72.3l.25.06c.03 0 .07-.01.13-.04.06-.02.1-.04.13-.07l1.15-1.23c.24-.22.52-.34.85-.34a1 1 0 0 1 .54.13h.02l3.88 2.41c.28.19.45.42.5.7z"/>
</symbol><symbol id="icon-time" viewBox="0 0 20 20">
    <path d="M14.24 5.76A5.97 5.97 0 0 0 10 4v6l-4.24 4.24a5.99 5.99 0 1 0 8.48-8.48zM20 10a10 10 0 1 1-20-.01A10 10 0 0 1 20 10zm-2 0a8 8 0 1 0-16 0 8 8 0 0 0 16 0z"/>
</symbol><symbol id="icon-tw" viewBox="0 0 17 13">
    <path d="M16.31 1.77c-.63.25-1.26.41-1.88.47.71-.4 1.19-.95 1.44-1.67a6.7 6.7 0 0 1-2.08.73 3.28 3.28 0 0 0-2.4-.95 3.3 3.3 0 0 0-2.32.88 2.82 2.82 0 0 0-.88 2.84 9.84 9.84 0 0 1-3.77-.94A9.16 9.16 0 0 1 1.43.9a2.79 2.79 0 0 0-.05 2.97c.26.44.62.8 1.06 1.08a3.47 3.47 0 0 1-1.48-.39v.04c0 .73.25 1.37.75 1.93.49.55 1.12.9 1.88 1.04a4.6 4.6 0 0 1-1.48.06c.21.6.59 1.1 1.16 1.49a3.4 3.4 0 0 0 1.9.61 6.76 6.76 0 0 1-4.86 1.25 10.34 10.34 0 0 0 8.32.85 8.67 8.67 0 0 0 4.49-3.34 8.1 8.1 0 0 0 1.56-4.76l-.01-.4a6.58 6.58 0 0 0 1.64-1.56z"/>
</symbol><symbol id="icon-vk" viewBox="0 0 17 8">
    <path d="M14.05 5.09c.53.45 1.09.89 1.57 1.39.21.22.41.45.56.71.22.37.02.78-.35.8h-2.34a1.9 1.9 0 0 1-1.48-.53c-.32-.29-.62-.6-.93-.9-.13-.12-.26-.24-.42-.33-.32-.18-.6-.13-.78.17-.18.29-.22.62-.24.96-.03.48-.19.61-.74.63a6.68 6.68 0 0 1-3.34-.63A7.04 7.04 0 0 1 3.32 5.5 24.04 24.04 0 0 1 .36.85C.18.48.31.29.77.28h2.28c.31 0 .52.16.63.42.42.89.92 1.74 1.55 2.53.17.21.34.42.59.57.27.16.47.11.6-.16.08-.17.12-.35.13-.53.06-.62.07-1.24-.03-1.86C6.45.86 6.2.61 5.77.54 5.55.5 5.58.43 5.69.31A.87.87 0 0 1 6.4 0h2.64c.41.07.5.24.56.61v2.58c0 .14.08.57.37.66.24.07.39-.1.53-.23a7.97 7.97 0 0 0 1.48-2.01c.18-.32.33-.65.48-.98.11-.24.29-.37.6-.36h2.53l.23.01c.43.07.54.23.41.6a5.33 5.33 0 0 1-1.01 1.54c-.42.52-.87 1.02-1.29 1.54-.39.48-.36.71.12 1.13z"/>
</symbol><symbol id="icon-yt" viewBox="0 0 16 11">
    <path d="M15.38.94C14.8.27 13.73 0 11.7 0H4.3C2.22 0 1.14.29.56 1.01 0 1.7 0 2.73 0 4.15v2.7C0 9.6.67 11 4.3 11h7.4c1.76 0 2.74-.24 3.37-.83.65-.61.93-1.6.93-3.32v-2.7c0-1.5-.04-2.53-.62-3.21zm-5.11 4.93L6.92 7.59a.52.52 0 0 1-.24.05.5.5 0 0 1-.27-.07.48.48 0 0 1-.25-.43V3.72a.5.5 0 0 1 .25-.43.52.52 0 0 1 .5-.01l3.36 1.7c.17.09.28.26.28.45a.5.5 0 0 1-.28.44z"/>
</symbol></svg>