<?xml version="1.0" encoding="UTF-8"?><!DOCTYPE svg PUBLIC "-//W3C//DTD SVG 1.1//EN" "http://www.w3.org/Graphics/SVG/1.1/DTD/svg11.dtd"><svg xmlns="http://www.w3.org/2000/svg"><symbol id="icon-balloon" viewBox="0 0 13 21">
    <path d="M6.5 1C2.9 1 0 4.13 0 8c0 5.25 6.5 13 6.5 13S13 13.25 13 8c0-3.87-2.9-7-6.5-7zm0 9.5c-1.28 0-2.32-1.12-2.32-2.5S5.22 5.5 6.5 5.5c1.28 0 2.32 1.12 2.32 2.5s-1.04 2.5-2.32 2.5z"/>
</symbol><symbol id="icon-mail" viewBox="0 0 21 16">
    <path d="M2.42 4.78L4.71 6.3l2.92 1.94.48.33a20.87 20.87 0 0 0 1.18.75c.23.13.44.22.64.29.2.06.39.1.56.1h.02c.17 0 .36-.04.56-.1a10.5 10.5 0 0 0 1.82-1.04l.48-.33 5.22-3.46c.54-.36 1-.8 1.36-1.31a2.7 2.7 0 0 0 .55-1.61c0-.47-.18-.87-.53-1.2-.35-.34-.77-.5-1.26-.5H2.29C1.71.15 1.27.33.96.7.65 1.08.5 1.54.5 2.09c0 .45.2.94.61 1.46s.85.93 1.31 1.23zm16.96 1.14a220.1 220.1 0 0 0-6.59 4.37c-.26.17-.61.34-1.05.52-.44.17-.85.26-1.23.26h-.02c-.38 0-.79-.1-1.23-.26a6.22 6.22 0 0 1-1.05-.52c-.27-.16-.61-.4-1.04-.7-1-.7-2.85-1.92-5.54-3.67-.43-.27-.8-.58-1.13-.93v8.46c0 .47.17.87.52 1.2.35.34.77.5 1.27.5h16.42c.5 0 .92-.16 1.27-.5.35-.33.52-.73.52-1.2V5c-.32.34-.69.65-1.12.93z"/>
</symbol><symbol id="icon-search" viewBox="0 0 13 12">
    <path d="M11.71 10.29L9.1 7.69l-.05-.05a4.94 4.94 0 1 0-1.41 1.41l.04.05 2.61 2.6a1 1 0 0 0 1.42-1.42zM4.93 8.16a3.22 3.22 0 1 1 0-6.44 3.22 3.22 0 0 1 0 6.44z"/>
</symbol><symbol id="icon-tel" viewBox="0 0 20 20">
    <path d="M19.3 15.78a1 1 0 0 1-.28.85l-2.67 2.8a1.88 1.88 0 0 1-1.43.57 8.8 8.8 0 0 1-3.33-.82c-.82-.36-1.76-.9-2.8-1.62a21.27 21.27 0 0 1-3.34-2.96 22.9 22.9 0 0 1-2.34-2.8 20.16 20.16 0 0 1-1.49-2.47A13.76 13.76 0 0 1 .4 5.7a5.47 5.47 0 0 1-.06-1.47c.02-.2.08-.4.18-.6.1-.21.2-.38.34-.5L3.53.3c.2-.2.4-.3.65-.3.17 0 .33.05.46.16.13.1.25.24.34.4l2.15 4.3c.13.22.16.46.1.73-.05.27-.16.5-.34.68l-.98 1.04a.36.36 0 0 0-.07.14.55.55 0 0 0-.03.16c.05.3.17.63.36 1.01.16.34.4.76.74 1.24.34.49.81 1.05 1.43 1.69.6.65 1.14 1.15 1.61 1.51.47.36.86.63 1.18.8.31.17.55.27.72.3l.25.06c.03 0 .07-.01.13-.04.06-.02.1-.04.13-.07l1.15-1.23c.24-.22.52-.34.85-.34a1 1 0 0 1 .54.13h.02l3.88 2.41c.28.19.45.42.5.7z"/>
</symbol><symbol id="icon-time" viewBox="0 0 20 20">
    <path d="M14.24 5.76A5.97 5.97 0 0 0 10 4v6l-4.24 4.24a5.99 5.99 0 1 0 8.48-8.48zM20 10a10 10 0 1 1-20-.01A10 10 0 0 1 20 10zm-2 0a8 8 0 1 0-16 0 8 8 0 0 0 16 0z"/>
</symbol><symbol id="icon-vk" viewBox="0 0 17 8">
    <path d="M14.05 5.09c.53.45 1.09.89 1.57 1.39.21.22.41.45.56.71.22.37.02.78-.35.8h-2.34a1.9 1.9 0 0 1-1.48-.53c-.32-.29-.62-.6-.93-.9-.13-.12-.26-.24-.42-.33-.32-.18-.6-.13-.78.17-.18.29-.22.62-.24.96-.03.48-.19.61-.74.63a6.68 6.68 0 0 1-3.34-.63A7.04 7.04 0 0 1 3.32 5.5 24.04 24.04 0 0 1 .36.85C.18.48.31.29.77.28h2.28c.31 0 .52.16.63.42.42.89.92 1.74 1.55 2.53.17.21.34.42.59.57.27.16.47.11.6-.16.08-.17.12-.35.13-.53.06-.62.07-1.24-.03-1.86C6.45.86 6.2.61 5.77.54 5.55.5 5.58.43 5.69.31A.87.87 0 0 1 6.4 0h2.64c.41.07.5.24.56.61v2.58c0 .14.08.57.37.66.24.07.39-.1.53-.23a7.97 7.97 0 0 0 1.48-2.01c.18-.32.33-.65.48-.98.11-.24.29-.37.6-.36h2.53l.23.01c.43.07.54.23.41.6a5.33 5.33 0 0 1-1.01 1.54c-.42.52-.87 1.02-1.29 1.54-.39.48-.36.71.12 1.13z"/>
</symbol></svg>